<?xml version="1.0" encoding="utf-8"?>
<svg version="1.0" width="360.000000pt" height="360.000000pt" viewBox="96.415 68.423 178.833 216.933" preserveAspectRatio="xMidYMid meet" xmlns="http://www.w3.org/2000/svg">
  <g transform="translate(0.000000,360.000000) scale(0.100000,-0.100000)" fill="#000000" stroke="none">
    <path d="M2115 2859 c-22 -23 -58 -49 -80 -59 -48 -21 -83 -53 -120 -109 -31&#10;-47 -45 -49 -21 -3 14 28 14 31 -2 37 -36 15 -181 18 -228 5 -54 -15 -61 -27&#10;-40 -72 l16 -33 -22 30 c-50 66 -85 93 -124 100 -58 10 -94 26 -131 58 l-33&#10;29 0 -33 c1 -71 42 -144 108 -189 18 -13 30 -25 27 -28 -3 -3 -25 9 -49 26&#10;-24 18 -47 32 -51 32 -13 0 27 -54 62 -86 l35 -30 -16 -48 c-21 -63 -20 -105&#10;5 -174 12 -31 24 -70 28 -87 7 -29 9 -30 81 -37 99 -10 116 -15 55 -17 -116&#10;-3 -165 -35 -218 -143 -104 -213 -54 -451 152 -724 81 -106 111 -154 111 -176&#10;0 -10 -22 -38 -50 -64 -42 -40 -50 -52 -50 -83 0 -35 14 -61 32 -61 5 0 6 15&#10;3 33 -5 27 -1 37 26 64 42 44 59 42 21 -1 -34 -39 -33 -77 1 -101 31 -21 38&#10;-19 27 11 -6 14 -10 31 -10 37 0 16 50 70 58 63 3 -4 -4 -16 -16 -29 -36 -38&#10;-22 -97 23 -97 24 0 24 0 7 31 l-17 30 35 30 c19 16 41 29 49 29 23 0 113 -75&#10;151 -124 18 -25 35 -44 37 -42 2 2 -7 33 -20 70 -14 36 -23 66 -22 66 9 0 48&#10;-75 65 -124 28 -83 85 -125 130 -96 13 8 12 17 -3 72 -29 103 -30 105 -3 63&#10;14 -22 33 -61 41 -86 22 -66 85 -93 106 -45 15 32 -1 106 -50 226 l-38 95 -41&#10;5 c-49 6 -79 29 -88 67 -8 32 -20 43 -51 43 -32 0 -71 39 -85 85 -11 33 -18&#10;40 -48 46 -41 9 -88 57 -97 100 -4 24 -11 29 -33 29 -15 0 -39 9 -54 21 -21&#10;17 -26 29 -26 65 0 31 -4 44 -14 44 -27 0 -56 64 -56 121 0 49 28 175 37 166&#10;2 -3 -2 -36 -8 -75 -13 -77 -7 -133 18 -157 14 -14 18 -14 39 0 32 21 35 19&#10;24 -11 -11 -29 -13 -84 -4 -108 16 -41 68 -39 102 3 10 13 11 10 6 -21 -8 -47&#10;11 -102 41 -122 30 -20 48 -20 84 -2 l28 15 -5 -55 c-3 -39 0 -61 12 -79 20&#10;-31 63 -33 94 -5 12 11 23 20 24 20 2 0 2 -18 0 -40 -9 -95 67 -151 93 -69 10&#10;29 22 23 29 -15 8 -41 56 -96 84 -96 11 0 25 7 33 16 10 13 8 33 -14 122 -32&#10;130 -43 212 -58 407 -19 262 -51 378 -125 451 -47 48 -89 68 -179 89 l-60 15&#10;68 -4 c46 -3 84 -12 118 -29 l51 -25 -5 32 c-3 17 -16 55 -29 84 -22 47 -24&#10;60 -15 105 10 60 4 137 -19 202 l-15 46 40 51 c56 69 51 81 -9 24 -65 -61 -75&#10;-59 -16 4 26 27 55 70 66 95 18 42 38 145 28 145 -2 0 -22 -18 -43 -41z m-101&#10;-317 c-15 -26 -15 -31 0 -60 9 -17 16 -50 16 -73 0 -36 -6 -48 -38 -78 -21&#10;-20 -62 -49 -92 -65 -30 -16 -76 -43 -101 -61 l-46 -33 14 61 c16 69 10 125&#10;-14 134 -39 15 -55 -66 -28 -142 8 -21 13 -40 11 -42 -1 -1 -46 20 -99 49&#10;-148 78 -177 114 -162 201 4 23 8 52 8 65 1 12 3 22 4 22 13 0 138 -85 170&#10;-115 37 -36 43 -39 62 -27 20 14 61 8 61 -9 0 -5 30 22 68 59 54 55 164 142&#10;180 142 2 0 -4 -13 -14 -28z" style="fill: rgb(214, 212, 212);"/>
  </g>
</svg>